<?xml version="1.0" encoding="UTF-8" standalone="no"?>
<svg
   xmlns:dc="http://purl.org/dc/elements/1.1/"
   xmlns:cc="http://creativecommons.org/ns#"
   xmlns:rdf="http://www.w3.org/1999/02/22-rdf-syntax-ns#"
   xmlns:svg="http://www.w3.org/2000/svg"
   xmlns="http://www.w3.org/2000/svg"
   xmlns:sodipodi="http://sodipodi.sourceforge.net/DTD/sodipodi-0.dtd"
   xmlns:inkscape="http://www.inkscape.org/namespaces/inkscape"
   version="1.0"
   inkscape:output_extension="org.inkscape.output.svg.inkscape"
   sodipodi:docname="release-management.svg"
   inkscape:version="1.0 (4035a4f, 2020-05-01)"
   sodipodi:version="0.32"
   id="svg2"
   height="170"
   width="950"
   inkscape:export-filename="/Users/hohwille/projects/devon/workspaces/main/scm/documentation/images/release-management.png"
   inkscape:export-xdpi="96"
   inkscape:export-ydpi="96">
  <sodipodi:namedview
     id="base"
     pagecolor="#ffffff"
     bordercolor="#666666"
     borderopacity="1.0"
     inkscape:pageopacity="1"
     inkscape:pageshadow="2"
     inkscape:zoom="1.3364318"
     inkscape:cx="459.46275"
     inkscape:cy="227.45123"
     inkscape:document-units="px"
     inkscape:current-layer="g6243"
     showgrid="true"
     objecttolerance="20"
     inkscape:window-width="2560"
     inkscape:window-height="1345"
     inkscape:window-x="0"
     inkscape:window-y="23"
     inkscape:window-maximized="1"
     inkscape:snap-to-guides="false"
     inkscape:snap-grids="true"
     inkscape:document-rotation="0"
     fit-margin-top="0"
     fit-margin-left="0"
     fit-margin-right="0"
     fit-margin-bottom="0">
    <inkscape:grid
       type="xygrid"
       id="grid2816"
       empspacing="5"
       visible="true"
       enabled="true"
       snapvisiblegridlinesonly="false"
       units="cm"
       spacingx="7.0866142"
       spacingy="7.0866142"
       originx="-46.636441"
       originy="-92.822134" />
  </sodipodi:namedview>
  <defs
     id="defs4">
    <inkscape:perspective
       sodipodi:type="inkscape:persp3d"
       inkscape:vp_x="0 : -47.913393 : 1"
       inkscape:vp_y="0 : 1000 : 0"
       inkscape:vp_z="744.09448 : -47.913393 : 1"
       inkscape:persp3d-origin="372.04724 : -223.30709 : 1"
       id="perspective10" />
    <inkscape:perspective
       sodipodi:type="inkscape:persp3d"
       inkscape:vp_x="0 : -573.59448 : 1"
       inkscape:vp_y="0 : 1000 : 0"
       inkscape:vp_z="1 : -573.59448 : 1"
       inkscape:persp3d-origin="0.5 : -573.76114 : 1"
       id="perspective4196" />
    <inkscape:perspective
       sodipodi:type="inkscape:persp3d"
       inkscape:vp_x="0 : -573.59448 : 1"
       inkscape:vp_y="0 : 1000 : 0"
       inkscape:vp_z="1 : -573.59448 : 1"
       inkscape:persp3d-origin="0.5 : -573.76114 : 1"
       id="perspective4218" />
    <inkscape:perspective
       sodipodi:type="inkscape:persp3d"
       inkscape:vp_x="0 : -573.59448 : 1"
       inkscape:vp_y="0 : 1000 : 0"
       inkscape:vp_z="1 : -573.59448 : 1"
       inkscape:persp3d-origin="0.5 : -573.76114 : 1"
       id="perspective4294" />
  </defs>
  <metadata
     id="metadata7">
    <rdf:RDF>
      <cc:Work
         rdf:about="">
        <dc:format>image/svg+xml</dc:format>
        <dc:type
           rdf:resource="http://purl.org/dc/dcmitype/StillImage" />
        <dc:title></dc:title>
      </cc:Work>
    </rdf:RDF>
  </metadata>
  <g
     inkscape:label="Ebene 1"
     inkscape:groupmode="layer"
     id="layer1"
     transform="translate(-46.636441,-401.08983)">
    <g
       transform="matrix(1.6666679,0,0,1.6041665,-314.89795,-508.11847)"
       id="g4272">
      <path
         style="fill:#000000;stroke:#000000;stroke-width:1.48981;stroke-linejoin:round;stroke-miterlimit:4;stroke-opacity:1"
         d="m 276.37796,600.59052 v 21.25983 h -21.25984 z"
         id="rect4264"
         sodipodi:nodetypes="cccc" />
      <rect
         y="600.59052"
         x="255.1181"
         height="21.259838"
         width="21.259838"
         id="rect4267"
         style="fill:none;stroke:#000000;stroke-width:1.48981;stroke-linejoin:round;stroke-miterlimit:4;stroke-dasharray:none;stroke-opacity:1" />
    </g>
    <path
       style="fill:none;stroke:#000000;stroke-width:3.543;stroke-linejoin:round;stroke-miterlimit:4;stroke-dasharray:none;stroke-opacity:1"
       d="m 74.866146,418.66674 -5.922499,7.62308 -2.730106,9.25927 -1.564061,9.39456 0.144437,9.52278 -3.736841,8.67292 -5.173623,7.90045 -2.023575,9.19282 -1.451945,9.30026 5.190322,8.36012 7.044719,6.87044 0.867315,9.73304 0.348455,9.76538 1.160423,9.49211 -0.550201,9.54694 3.401386,8.94057 4.995794,8.15754 9.138521,-1.46377 8.23205,-4.22948 9.339233,-0.38216 8.67691,3.47545 9.03247,0.3933 8.74296,2.30234 8.88956,-1.35291 8.81444,-1.77774 9.72968,-0.68515 9.60486,1.69786 9.61478,3.25063 6.01608,8.17418 8.14007,-4.8984 8.86218,-3.42298 9.41726,-1.09969 9.48123,0.0185 5.66819,-0.49426 4.6684,-3.2525 5.21015,-2.26783 3.43232,-4.52857 3.34508,-4.56237 0.6568,-5.61902 4.58081,-3.4445 1.80031,-5.44126 -1.63232,-5.26577 0.85184,-5.44676 1.43751,-5.23214 2.85722,-4.6128 -1.62559,-5.21032 0.52525,-5.43269 0.66114,-5.45226 2.99596,-4.60309 -2.03299,-4.78673 -2.63493,-4.48363 -2.33968,-4.64733 -2.98098,-4.26444 -1.08379,-5.28047 -2.05639,-4.9829 1.01069,-5.27354 1.36153,-5.19403 -3.27913,-3.9119 -2.39721,-4.50655 -3.74596,-3.43021 -3.52167,-3.66011 -3.33434,-3.81072 -3.05175,-4.04056 -3.42521,-3.82865 -1.92126,-4.76437 -9.16549,-0.26294 -8.56108,3.28379 -8.81666,-1.77578 -8.89251,-1.34547 -8.95713,-0.0106 -8.72837,2.01141 -8.99413,0.87807 -8.75077,-2.25597 -9.41455,-1.08679 -9.4301,-0.9424 -7.96171,-5.17423 -8.545,-4.14062 -9.69554,-0.98386 -8.632164,4.52298 -8.916792,2.87833 -8.270288,4.40413"
       id="path2956" />
    <path
       id="path3731"
       d="m 259.11812,418.66674 -0.21101,9.0343 -1.96715,8.82006 1.08489,8.97013 2.7871,8.5949 1.26058,8.86673 -1.23394,8.87049 0.75741,8.92489 -1.74858,8.78464 -1.52425,8.79236 -0.96396,8.8713 2.37072,8.73974 -0.7496,9.02449 -0.38268,9.07364 2.80912,8.63632 -2.44003,8.69687 0.15138,9.03142 8.21497,-3.96891 9.06513,-1.0302 8.96934,-0.67021 8.96809,-0.68675 8.94971,-1.59547 8.99072,1.3453 8.79647,-1.7974 8.91171,-1.0909 9.01615,0.61351 8.97442,-1.06166 8.62868,2.8549 9.08253,0.33489 8.92545,1.10869 8.97234,0.62426 8.17477,4.08708 9.0918,0.93287 4.23496,-2.88759 3.74253,-3.50236 3.59749,-3.71515 2.30522,-4.62929 2.04972,-4.73586 0.76527,-5.10334 3.21355,-4.01456 2.35812,-4.56976 0.95529,-4.93536 0.84764,-4.95498 1.59482,-4.77929 2.2295,-4.51823 0.37368,-5.11274 1.72793,-4.82638 3.3151,-3.91271 2.12225,-4.66854 -3.29806,-3.92372 -1.97699,-4.72909 -1.06609,-4.95474 -0.85361,-4.99573 -2.84098,-4.10512 -3.09582,-3.91652 -2.83658,-4.10983 -2.50378,-4.32064 -2.1579,-4.50006 -2.20632,-4.47653 -1.04868,-4.88766 -1.6026,-4.73504 -2.99128,-4.01947 -1.88371,-4.6428 -2.74166,-4.15222 -2.32901,-4.39697 -8.92193,-1.43351 -9.03636,0.009 -9.01727,0.12871 -8.96131,1.01125 -8.89589,1.39633 -8.84423,1.69299 -8.88491,1.75267 -8.30424,3.61289 -8.91074,-1.65071 -9.02202,0.85403 -8.7841,-1.89167 -8.56353,-2.72117 -8.77313,-1.96843 -8.8517,-1.57798 -9.01179,-0.32368 -8.94913,1.1091"
       style="fill:none;stroke:#000000;stroke-width:3.543;stroke-linejoin:round;stroke-miterlimit:4;stroke-dasharray:none;stroke-opacity:1" />
    <path
       style="fill:none;stroke:#000000;stroke-width:3.543;stroke-linejoin:round;stroke-miterlimit:4;stroke-dasharray:none;stroke-opacity:1"
       d="m 445.13294,417.22782 c 0,0 0.20739,3.59077 0.49699,9.64065 0.13131,2.74298 0.27818,5.99146 0.42597,9.63997 0.12021,2.96782 0.24098,6.20032 0.355,9.64076 0.10148,3.06196 0.1976,6.28863 0.28399,9.63997 0.0803,3.11668 0.15226,6.34118 0.21302,9.64133 0.0581,3.15376 0.10594,6.37659 0.142,9.64041 0.0352,3.18314 0.0591,6.40526 0.071,9.64031 0.0118,3.20932 0.0118,6.43136 1e-5,9.64069 -0.0119,3.23536 -0.0358,6.4578 -0.071,9.64124 -0.036,3.26371 -0.0839,6.48643 -0.14199,9.64008 -0.0607,3.30012 -0.13267,6.5246 -0.213,9.64126 -0.0864,3.35178 -0.18252,6.57886 -0.28401,9.64122 -0.11402,3.44048 -0.23479,6.67304 -0.355,9.64091 -0.14779,3.64859 -0.29467,6.89715 -0.42598,9.6402 -0.28961,6.05016 -0.49701,9.64111 -0.49701,9.64111 0,0 3.44927,0.13667 9.26076,0.33742 2.63488,0.091 5.75535,0.19453 9.2601,0.30203 2.85087,0.0874 5.956,0.1775 9.26086,0.26576 2.94131,0.0786 6.04083,0.15568 9.26011,0.22863 2.99386,0.0678 6.09131,0.13206 9.26142,0.19083 3.02947,0.0562 6.12531,0.10735 9.26052,0.15237 3.0577,0.0439 6.15286,0.082 9.26043,0.11347 3.08286,0.0312 6.17794,0.0561 9.2608,0.0742 3.10787,0.0183 6.20333,0.0298 9.26133,0.0347 3.13509,0.005 6.23083,0.003 9.26021,-0.005 3.17007,-0.008 6.26749,-0.0238 9.26134,-0.0446 3.2197,-0.0224 6.31962,-0.0511 9.2613,-0.084 3.30491,-0.037 6.41009,-0.0793 9.26101,-0.12324 3.50482,-0.054 6.62537,-0.11045 9.26033,-0.16202 5.81176,-0.11377 9.2612,-0.20034 9.2612,-0.20034 0,0 1.58018,-3.62898 4.03701,-9.26722 1.17004,-2.68516 2.53904,-5.82562 4.03342,-9.24558 1.27066,-2.90796 2.63204,-6.01796 4.03987,-9.22236 1.32293,-3.01117 2.68694,-6.10568 4.05524,-9.19504 1.36831,-3.08941 2.74098,-6.17364 4.08026,-9.16536 1.42533,-3.18393 2.81291,-6.26306 4.11512,-9.13372 1.53152,-3.37617 2.94505,-6.46397 4.15863,-9.09752 2.54793,-5.52916 4.21153,-9.05848 4.21153,-9.05848 0,0 -1.66369,-3.52953 -4.21174,-9.05895 -1.21349,-2.63333 -2.62687,-5.72082 -4.15822,-9.09662 -1.3021,-2.87041 -2.68955,-5.94924 -4.11475,-9.13289 -1.33926,-2.99165 -2.7119,-6.07584 -4.0802,-9.1652 -1.36832,-3.0894 -2.73235,-6.18396 -4.05531,-9.19519 -1.40796,-3.20469 -2.76947,-6.31497 -4.04024,-9.22319 -1.49454,-3.42033 -2.86368,-6.56113 -4.03382,-9.2465 -2.45671,-5.63797 -4.0368,-9.26675 -4.0368,-9.26675 0,0 -3.44927,-0.0866 -9.26076,-0.20033 -2.63488,-0.0516 -5.75536,-0.10801 -9.2601,-0.16202 -2.85087,-0.0439 -5.956,-0.0862 -9.26086,-0.12324 -2.94131,-0.0329 -6.04083,-0.0617 -9.26011,-0.084 -2.99386,-0.0208 -6.09131,-0.0361 -9.26142,-0.0446 -3.02948,-0.008 -6.12531,-0.01 -9.26052,-0.005 -3.05771,0.005 -6.15286,0.0164 -9.26043,0.0347 -3.08286,0.0181 -6.17794,0.0429 -9.2608,0.0742 -3.10787,0.0315 -6.20333,0.0695 -9.26133,0.11346 -3.13509,0.045 -6.23083,0.0962 -9.26021,0.15237 -3.17007,0.0588 -6.26749,0.12298 -9.26134,0.19082 -3.21971,0.0729 -6.31962,0.15008 -9.2613,0.22865 -3.30491,0.0883 -6.41009,0.17832 -9.26102,0.26576 -3.50482,0.1075 -6.62536,0.21102 -9.26032,0.30204 -5.81176,0.20075 -9.2612,0.33743 -9.2612,0.33743 0,0 0,0 0,0"
       id="path3733" />
    <path
       id="path3735"
       d="m 627.62206,418.66674 v 141.73228 h 141.73228 l 35.43307,-70.86614 -35.43307,-70.86614 z"
       style="fill:none;stroke:#000000;stroke-width:3.543;stroke-linejoin:round;stroke-miterlimit:4;stroke-dasharray:none;stroke-opacity:1" />
    <g
       id="g5874"
       transform="translate(39.43308,-350.23088)">
      <path
         id="path3737"
         d="M 772.44094,768.89762 V 910.6299 h 141.73228 l 35.43307,-70.86614 -35.43307,-70.86614 z"
         style="fill:none;stroke:#000000;stroke-width:3.543;stroke-linejoin:round;stroke-miterlimit:4;stroke-dasharray:none;stroke-opacity:1" />
      <path
         id="path5096"
         d="m 776.4375,906.625 c 45.08333,0 90.16667,0 135.25,0 11.14583,-22.29167 22.29167,-44.58333 33.4375,-66.875 -11.13542,-22.28125 -22.27083,-44.5625 -33.40625,-66.84375 -45.09375,0 -90.1875,0 -135.28125,0 0,44.57292 0,89.14583 0,133.71875 z"
         style="fill:none;stroke:#000000;stroke-width:3.543;stroke-linejoin:round;stroke-miterlimit:4;stroke-dasharray:none;stroke-opacity:1" />
    </g>
    <g
       transform="translate(4,4)"
       id="g5923">
      <g
         transform="translate(28.346468,-136.4173)"
         id="g5900">
        <path
           style="fill:#000000;stroke:#000000;stroke-width:2.43602;stroke-linejoin:round;stroke-miterlimit:4;stroke-opacity:1"
           d="m 276.37796,600.59052 v 21.25983 h -21.25984 z"
           id="path5902"
           sodipodi:nodetypes="cccc" />
        <rect
           y="600.59052"
           x="255.1181"
           height="21.259838"
           width="21.259838"
           id="rect5904"
           style="fill:none;stroke:#000000;stroke-width:2.43602;stroke-linejoin:round;stroke-miterlimit:4;stroke-dasharray:none;stroke-opacity:1" />
      </g>
      <g
         id="g5906"
         transform="translate(99.21261,-136.4173)">
        <path
           sodipodi:nodetypes="cccc"
           id="path5908"
           d="m 276.37796,600.59052 v 21.25983 h -21.25984 z"
           style="fill:#000000;stroke:#000000;stroke-width:2.43602;stroke-linejoin:round;stroke-miterlimit:4;stroke-opacity:1" />
        <rect
           style="fill:none;stroke:#000000;stroke-width:2.43602;stroke-linejoin:round;stroke-miterlimit:4;stroke-dasharray:none;stroke-opacity:1"
           id="rect5910"
           width="21.259838"
           height="21.259838"
           x="255.1181"
           y="600.59052" />
      </g>
      <g
         id="g5918">
        <circle
           style="color:#000000;display:inline;overflow:visible;visibility:visible;fill:#000000;stroke:none;stroke-width:3.543;marker:none;enable-background:accumulate"
           id="path5912"
           transform="translate(-17.716528,400.39368)"
           cx="336.61417"
           cy="74.409447"
           r="3.5433071" />
        <circle
           transform="translate(-7.0866072,400.39368)"
           id="path5914"
           style="color:#000000;display:inline;overflow:visible;visibility:visible;fill:#000000;stroke:none;stroke-width:3.543;marker:none;enable-background:accumulate"
           cx="336.61417"
           cy="74.409447"
           r="3.5433071" />
        <circle
           style="color:#000000;display:inline;overflow:visible;visibility:visible;fill:#000000;stroke:none;stroke-width:3.543;marker:none;enable-background:accumulate"
           id="path5916"
           transform="translate(3.5433141,400.39368)"
           cx="336.61417"
           cy="74.409447"
           r="3.5433071" />
      </g>
    </g>
    <g
       id="g6038"
       transform="matrix(0.45633506,0.26346517,-0.26346517,0.45633506,251.97151,257.72655)">
      <g
         id="g6034">
        <path
           style="fill:none;stroke:#000000;stroke-width:3.36222;stroke-miterlimit:4;stroke-dasharray:none;stroke-opacity:1"
           d="m 318.89764,322.44093 v 14.17322 l 14.17322,14.17323 56.69292,-10e-6 v -42.51968 l -56.69292,10e-6 z"
           id="path6001"
           sodipodi:nodetypes="ccccccc" />
        <circle
           style="color:#000000;display:inline;overflow:visible;visibility:visible;fill:none;stroke:#000000;stroke-width:4.94765;stroke-linecap:round;stroke-linejoin:round;stroke-miterlimit:4;stroke-dasharray:none;stroke-dashoffset:0;stroke-opacity:1;marker:none;enable-background:accumulate"
           id="path6003"
           transform="matrix(0.6795584,0,0,0.6795584,106.72976,315.08023)"
           cx="325.98425"
           cy="21.259836"
           r="7.0866141" />
      </g>
      <g
         transform="translate(0,1.9199758)"
         id="g6027">
        <text
           xml:space="preserve"
           style="font-style:normal;font-weight:normal;line-height:0%;font-family:'Bitstream Vera Sans';fill:#000000;fill-opacity:1;stroke:none"
           x="347.24408"
           y="336.61414"
           id="text6017"><tspan
             sodipodi:role="line"
             id="tspan6019"
             x="347.24408"
             y="336.61414"
             style="font-size:40px;line-height:1.25">a<tspan
   style="font-size:16px"
   id="tspan6021" /></tspan></text>
        <text
           xml:space="preserve"
           style="font-style:normal;font-weight:normal;line-height:0%;font-family:'Bitstream Vera Sans';fill:#000000;fill-opacity:1;stroke:none"
           x="368.25397"
           y="339.81192"
           id="text6023"><tspan
             sodipodi:role="line"
             id="tspan6025"
             x="368.25397"
             y="339.81192"
             style="font-size:14px;line-height:1.25">1</tspan></text>
      </g>
    </g>
    <g
       transform="matrix(0.45633506,0.26346517,-0.26346517,0.45633506,324.49608,257.63457)"
       id="g6049">
      <g
         id="g6051">
        <path
           sodipodi:nodetypes="ccccccc"
           id="path6053"
           d="m 318.89764,322.44093 v 14.17322 l 14.17322,14.17323 56.69292,-10e-6 v -42.51968 l -56.69292,10e-6 z"
           style="fill:none;stroke:#000000;stroke-width:3.36222;stroke-miterlimit:4;stroke-dasharray:none;stroke-opacity:1" />
        <circle
           transform="matrix(0.6795584,0,0,0.6795584,106.72976,315.08023)"
           id="path6055"
           style="color:#000000;display:inline;overflow:visible;visibility:visible;fill:none;stroke:#000000;stroke-width:4.94765;stroke-linecap:round;stroke-linejoin:round;stroke-miterlimit:4;stroke-dasharray:none;stroke-dashoffset:0;stroke-opacity:1;marker:none;enable-background:accumulate"
           cx="325.98425"
           cy="21.259836"
           r="7.0866141" />
      </g>
      <g
         id="g6057"
         transform="translate(0,1.9199758)">
        <text
           id="text6059"
           y="336.61414"
           x="347.24408"
           style="font-style:normal;font-weight:normal;line-height:0%;font-family:'Bitstream Vera Sans';fill:#000000;fill-opacity:1;stroke:none"
           xml:space="preserve"><tspan
             y="336.61414"
             x="347.24408"
             id="tspan6061"
             sodipodi:role="line"
             style="font-size:40px;line-height:1.25">a<tspan
   id="tspan6063"
   style="font-size:16px" /></tspan></text>
        <text
           id="text6065"
           y="339.81192"
           x="368.25397"
           style="font-style:normal;font-weight:normal;line-height:0%;font-family:'Bitstream Vera Sans';fill:#000000;fill-opacity:1;stroke:none"
           xml:space="preserve"><tspan
             style="font-size:14px;line-height:1.25"
             y="339.81192"
             x="368.25397"
             id="tspan6067"
             sodipodi:role="line">n</tspan></text>
      </g>
    </g>
    <g
       id="g6069"
       transform="translate(181.16535,4)">
      <g
         id="g6071"
         transform="translate(28.346468,-136.4173)">
        <path
           sodipodi:nodetypes="cccc"
           id="path6073"
           d="m 276.37796,600.59052 v 21.25983 h -21.25984 z"
           style="fill:#000000;stroke:#000000;stroke-width:2.43602;stroke-linejoin:round;stroke-miterlimit:4;stroke-opacity:1" />
        <rect
           style="fill:none;stroke:#000000;stroke-width:2.43602;stroke-linejoin:round;stroke-miterlimit:4;stroke-dasharray:none;stroke-opacity:1"
           id="rect6075"
           width="21.259838"
           height="21.259838"
           x="255.1181"
           y="600.59052" />
      </g>
      <g
         transform="translate(99.21261,-136.4173)"
         id="g6077">
        <path
           style="fill:#000000;stroke:#000000;stroke-width:2.43602;stroke-linejoin:round;stroke-miterlimit:4;stroke-opacity:1"
           d="m 276.37796,600.59052 v 21.25983 h -21.25984 z"
           id="path6079"
           sodipodi:nodetypes="cccc" />
        <rect
           y="600.59052"
           x="255.1181"
           height="21.259838"
           width="21.259838"
           id="rect6081"
           style="fill:none;stroke:#000000;stroke-width:2.43602;stroke-linejoin:round;stroke-miterlimit:4;stroke-dasharray:none;stroke-opacity:1" />
      </g>
      <g
         id="g6083">
        <circle
           transform="translate(-17.716528,400.39368)"
           id="path6085"
           style="color:#000000;display:inline;overflow:visible;visibility:visible;fill:#000000;stroke:none;stroke-width:3.543;marker:none;enable-background:accumulate"
           cx="336.61417"
           cy="74.409447"
           r="3.5433071" />
        <circle
           style="color:#000000;display:inline;overflow:visible;visibility:visible;fill:#000000;stroke:none;stroke-width:3.543;marker:none;enable-background:accumulate"
           id="path6087"
           transform="translate(-7.0866072,400.39368)"
           cx="336.61417"
           cy="74.409447"
           r="3.5433071" />
        <circle
           transform="translate(3.5433141,400.39368)"
           id="path6089"
           style="color:#000000;display:inline;overflow:visible;visibility:visible;fill:#000000;stroke:none;stroke-width:3.543;marker:none;enable-background:accumulate"
           cx="336.61417"
           cy="74.409447"
           r="3.5433071" />
      </g>
    </g>
    <g
       transform="matrix(0.45633506,0.26346517,-0.26346517,0.45633506,429.13686,257.72655)"
       id="g6091">
      <g
         id="g6093">
        <path
           sodipodi:nodetypes="ccccccc"
           id="path6095"
           d="m 318.89764,322.44093 v 14.17322 l 14.17322,14.17323 56.69292,-10e-6 v -42.51968 l -56.69292,10e-6 z"
           style="fill:none;stroke:#000000;stroke-width:3.36222;stroke-miterlimit:4;stroke-dasharray:none;stroke-opacity:1" />
        <circle
           transform="matrix(0.6795584,0,0,0.6795584,106.72976,315.08023)"
           id="path6097"
           style="color:#000000;display:inline;overflow:visible;visibility:visible;fill:none;stroke:#000000;stroke-width:4.94765;stroke-linecap:round;stroke-linejoin:round;stroke-miterlimit:4;stroke-dasharray:none;stroke-dashoffset:0;stroke-opacity:1;marker:none;enable-background:accumulate"
           cx="325.98425"
           cy="21.259836"
           r="7.0866141" />
      </g>
      <g
         id="g6099"
         transform="translate(0,1.9199758)">
        <text
           id="text6101"
           y="336.61414"
           x="347.24408"
           style="font-style:normal;font-weight:normal;line-height:0%;font-family:'Bitstream Vera Sans';fill:#000000;fill-opacity:1;stroke:none"
           xml:space="preserve"><tspan
             y="336.61414"
             x="347.24408"
             id="tspan6103"
             sodipodi:role="line"
             style="font-size:40px;line-height:1.25">b</tspan></text>
        <text
           id="text6107"
           y="339.81192"
           x="368.25397"
           style="font-style:normal;font-weight:normal;line-height:0%;font-family:'Bitstream Vera Sans';fill:#000000;fill-opacity:1;stroke:none"
           xml:space="preserve"><tspan
             style="font-size:14px;line-height:1.25"
             y="339.81192"
             x="368.25397"
             id="tspan6109"
             sodipodi:role="line">1</tspan></text>
      </g>
    </g>
    <g
       id="g6111"
       transform="matrix(0.45633506,0.26346517,-0.26346517,0.45633506,501.66143,257.63457)">
      <g
         id="g6113">
        <path
           style="fill:none;stroke:#000000;stroke-width:3.36222;stroke-miterlimit:4;stroke-dasharray:none;stroke-opacity:1"
           d="m 318.89764,322.44093 v 14.17322 l 14.17322,14.17323 56.69292,-10e-6 v -42.51968 l -56.69292,10e-6 z"
           id="path6115"
           sodipodi:nodetypes="ccccccc" />
        <circle
           style="color:#000000;display:inline;overflow:visible;visibility:visible;fill:none;stroke:#000000;stroke-width:4.94765;stroke-linecap:round;stroke-linejoin:round;stroke-miterlimit:4;stroke-dasharray:none;stroke-dashoffset:0;stroke-opacity:1;marker:none;enable-background:accumulate"
           id="path6117"
           transform="matrix(0.6795584,0,0,0.6795584,106.72976,315.08023)"
           cx="325.98425"
           cy="21.259836"
           r="7.0866141" />
      </g>
      <g
         transform="translate(0,1.9199758)"
         id="g6119">
        <text
           xml:space="preserve"
           style="font-style:normal;font-weight:normal;line-height:0%;font-family:'Bitstream Vera Sans';fill:#000000;fill-opacity:1;stroke:none"
           x="347.24408"
           y="336.61414"
           id="text6121"><tspan
             sodipodi:role="line"
             id="tspan6123"
             x="347.24408"
             y="336.61414"
             style="font-size:40px;line-height:1.25">b</tspan></text>
        <text
           xml:space="preserve"
           style="font-style:normal;font-weight:normal;line-height:0%;font-family:'Bitstream Vera Sans';fill:#000000;fill-opacity:1;stroke:none"
           x="368.25397"
           y="339.81192"
           id="text6127"><tspan
             sodipodi:role="line"
             id="tspan6129"
             x="368.25397"
             y="339.81192"
             style="font-size:14px;line-height:1.25">n</tspan></text>
      </g>
    </g>
    <g
       transform="translate(358.33071,4)"
       id="g6131">
      <g
         transform="translate(28.346468,-136.4173)"
         id="g6133">
        <path
           style="fill:#000000;stroke:#000000;stroke-width:2.43602;stroke-linejoin:round;stroke-miterlimit:4;stroke-opacity:1"
           d="m 276.37796,600.59052 v 21.25983 h -21.25984 z"
           id="path6135"
           sodipodi:nodetypes="cccc" />
        <rect
           y="600.59052"
           x="255.1181"
           height="21.259838"
           width="21.259838"
           id="rect6137"
           style="fill:none;stroke:#000000;stroke-width:2.43602;stroke-linejoin:round;stroke-miterlimit:4;stroke-dasharray:none;stroke-opacity:1" />
      </g>
      <g
         id="g6139"
         transform="translate(99.21261,-136.4173)">
        <path
           sodipodi:nodetypes="cccc"
           id="path6141"
           d="m 276.37796,600.59052 v 21.25983 h -21.25984 z"
           style="fill:#000000;stroke:#000000;stroke-width:2.43602;stroke-linejoin:round;stroke-miterlimit:4;stroke-opacity:1" />
        <rect
           style="fill:none;stroke:#000000;stroke-width:2.43602;stroke-linejoin:round;stroke-miterlimit:4;stroke-dasharray:none;stroke-opacity:1"
           id="rect6143"
           width="21.259838"
           height="21.259838"
           x="255.1181"
           y="600.59052" />
      </g>
      <g
         id="g6145">
        <circle
           style="color:#000000;display:inline;overflow:visible;visibility:visible;fill:#000000;stroke:none;stroke-width:3.543;marker:none;enable-background:accumulate"
           id="path6147"
           transform="translate(-17.716528,400.39368)"
           cx="336.61417"
           cy="74.409447"
           r="3.5433071" />
        <circle
           transform="translate(-7.0866072,400.39368)"
           id="path6149"
           style="color:#000000;display:inline;overflow:visible;visibility:visible;fill:#000000;stroke:none;stroke-width:3.543;marker:none;enable-background:accumulate"
           cx="336.61417"
           cy="74.409447"
           r="3.5433071" />
        <circle
           style="color:#000000;display:inline;overflow:visible;visibility:visible;fill:#000000;stroke:none;stroke-width:3.543;marker:none;enable-background:accumulate"
           id="path6151"
           transform="translate(3.5433141,400.39368)"
           cx="336.61417"
           cy="74.409447"
           r="3.5433071" />
      </g>
    </g>
    <g
       id="g6153"
       transform="matrix(0.45633506,0.26346517,-0.26346517,0.45633506,606.30222,257.72655)">
      <g
         id="g6155">
        <path
           style="fill:none;stroke:#000000;stroke-width:3.36222;stroke-miterlimit:4;stroke-dasharray:none;stroke-opacity:1"
           d="m 318.89764,322.44093 v 14.17322 l 14.17322,14.17323 56.69292,-10e-6 v -42.51968 l -56.69292,10e-6 z"
           id="path6157"
           sodipodi:nodetypes="ccccccc" />
        <circle
           style="color:#000000;display:inline;overflow:visible;visibility:visible;fill:none;stroke:#000000;stroke-width:4.94765;stroke-linecap:round;stroke-linejoin:round;stroke-miterlimit:4;stroke-dasharray:none;stroke-dashoffset:0;stroke-opacity:1;marker:none;enable-background:accumulate"
           id="path6159"
           transform="matrix(0.6795584,0,0,0.6795584,106.72976,315.08023)"
           cx="325.98425"
           cy="21.259836"
           r="7.0866141" />
      </g>
      <g
         transform="translate(0,1.9199758)"
         id="g6161">
        <text
           xml:space="preserve"
           style="font-style:normal;font-weight:normal;line-height:0%;font-family:'Bitstream Vera Sans';fill:#000000;fill-opacity:1;stroke:none"
           x="338.77219"
           y="337.12268"
           id="text6163"><tspan
             sodipodi:role="line"
             id="tspan6165"
             x="338.77219"
             y="337.12268"
             style="font-size:40px;line-height:1.25">rc</tspan></text>
        <text
           xml:space="preserve"
           style="font-style:normal;font-weight:normal;line-height:0%;font-family:'Bitstream Vera Sans';fill:#000000;fill-opacity:1;stroke:none"
           x="373.43881"
           y="341.20117"
           id="text6169"><tspan
             sodipodi:role="line"
             id="tspan6171"
             x="373.43881"
             y="341.20117"
             style="font-size:14px;line-height:1.25">1</tspan></text>
      </g>
    </g>
    <g
       transform="matrix(0.45633506,0.26346517,-0.26346517,0.45633506,678.82679,257.63457)"
       id="g6173">
      <g
         id="g6175">
        <path
           sodipodi:nodetypes="ccccccc"
           id="path6177"
           d="m 318.89764,322.44093 v 14.17322 l 14.17322,14.17323 56.69292,-10e-6 v -42.51968 l -56.69292,10e-6 z"
           style="fill:none;stroke:#000000;stroke-width:3.36222;stroke-miterlimit:4;stroke-dasharray:none;stroke-opacity:1" />
        <circle
           transform="matrix(0.6795584,0,0,0.6795584,106.72976,315.08023)"
           id="path6179"
           style="color:#000000;display:inline;overflow:visible;visibility:visible;fill:none;stroke:#000000;stroke-width:4.94765;stroke-linecap:round;stroke-linejoin:round;stroke-miterlimit:4;stroke-dasharray:none;stroke-dashoffset:0;stroke-opacity:1;marker:none;enable-background:accumulate"
           cx="325.98425"
           cy="21.259836"
           r="7.0866141" />
      </g>
      <g
         id="g6181"
         transform="translate(-3.2870584,3.8177599)">
        <text
           id="text6183"
           y="335.22488"
           x="342.05923"
           style="font-style:normal;font-weight:normal;line-height:0%;font-family:'Bitstream Vera Sans';text-align:start;text-anchor:start;fill:#000000;fill-opacity:1;stroke:none"
           xml:space="preserve"><tspan
             y="335.22488"
             x="342.05923"
             id="tspan6185"
             sodipodi:role="line"
             style="font-size:40px;line-height:1.25">rc</tspan></text>
        <text
           id="text6189"
           y="339.30338"
           x="376.72586"
           style="font-style:normal;font-weight:normal;line-height:0%;font-family:'Bitstream Vera Sans';fill:#000000;fill-opacity:1;stroke:none"
           xml:space="preserve"><tspan
             style="font-size:14px;line-height:1.25"
             y="339.30338"
             x="376.72586"
             id="tspan6191"
             sodipodi:role="line">n</tspan></text>
      </g>
    </g>
    <g
       id="g6193"
       transform="translate(549.66929,4)">
      <g
         id="g6195"
         transform="translate(28.346468,-136.4173)">
        <path
           sodipodi:nodetypes="cccc"
           id="path6197"
           d="m 276.37796,600.59052 v 21.25983 h -21.25984 z"
           style="fill:#000000;stroke:#000000;stroke-width:2.43602;stroke-linejoin:round;stroke-miterlimit:4;stroke-opacity:1" />
        <rect
           style="fill:none;stroke:#000000;stroke-width:2.43602;stroke-linejoin:round;stroke-miterlimit:4;stroke-dasharray:none;stroke-opacity:1"
           id="rect6199"
           width="21.259838"
           height="21.259838"
           x="255.1181"
           y="600.59052" />
      </g>
      <g
         transform="translate(99.21261,-136.4173)"
         id="g6201">
        <path
           style="fill:#000000;stroke:#000000;stroke-width:2.43602;stroke-linejoin:round;stroke-miterlimit:4;stroke-opacity:1"
           d="m 276.37796,600.59052 v 21.25983 h -21.25984 z"
           id="path6203"
           sodipodi:nodetypes="cccc" />
        <rect
           y="600.59052"
           x="255.1181"
           height="21.259838"
           width="21.259838"
           id="rect6205"
           style="fill:none;stroke:#000000;stroke-width:2.43602;stroke-linejoin:round;stroke-miterlimit:4;stroke-dasharray:none;stroke-opacity:1" />
      </g>
      <g
         id="g6207">
        <circle
           transform="translate(-17.716528,400.39368)"
           id="path6209"
           style="color:#000000;display:inline;overflow:visible;visibility:visible;fill:#000000;stroke:none;stroke-width:3.543;marker:none;enable-background:accumulate"
           cx="336.61417"
           cy="74.409447"
           r="3.5433071" />
        <circle
           style="color:#000000;display:inline;overflow:visible;visibility:visible;fill:#000000;stroke:none;stroke-width:3.543;marker:none;enable-background:accumulate"
           id="path6211"
           transform="translate(-7.0866072,400.39368)"
           cx="336.61417"
           cy="74.409447"
           r="3.5433071" />
        <circle
           transform="translate(3.5433141,400.39368)"
           id="path6213"
           style="color:#000000;display:inline;overflow:visible;visibility:visible;fill:#000000;stroke:none;stroke-width:3.543;marker:none;enable-background:accumulate"
           cx="336.61417"
           cy="74.409447"
           r="3.5433071" />
      </g>
    </g>
    <g
       transform="matrix(0.45633506,0.26346517,-0.26346517,0.45633506,797.6408,257.72655)"
       id="g6215">
      <g
         id="g6217">
        <path
           sodipodi:nodetypes="ccccccc"
           id="path6219"
           d="m 318.89764,322.44093 v 14.17322 l 14.17322,14.17323 56.69292,-10e-6 v -42.51968 l -56.69292,10e-6 z"
           style="fill:none;stroke:#000000;stroke-width:3.36222;stroke-miterlimit:4;stroke-dasharray:none;stroke-opacity:1" />
        <circle
           transform="matrix(0.6795584,0,0,0.6795584,106.72976,315.08023)"
           id="path6221"
           style="color:#000000;display:inline;overflow:visible;visibility:visible;fill:none;stroke:#000000;stroke-width:4.94765;stroke-linecap:round;stroke-linejoin:round;stroke-miterlimit:4;stroke-dasharray:none;stroke-dashoffset:0;stroke-opacity:1;marker:none;enable-background:accumulate"
           cx="325.98425"
           cy="21.259836"
           r="7.0866141" />
      </g>
      <g
         id="g6223"
         transform="translate(-3.2870584,3.8177599)">
        <text
           id="text6225"
           y="336.61414"
           x="347.24408"
           style="font-style:normal;font-weight:normal;line-height:0%;font-family:'Bitstream Vera Sans';fill:#000000;fill-opacity:1;stroke:none"
           xml:space="preserve"><tspan
             y="336.61414"
             x="347.24408"
             id="tspan6227"
             sodipodi:role="line"
             style="font-size:40px;line-height:1.25">.1</tspan></text>
      </g>
    </g>
    <g
       id="g6235"
       transform="matrix(0.45633506,0.26346517,-0.26346517,0.45633506,866.16537,253.63457)">
      <g
         transform="translate(10.369685,2.7785486)"
         id="g6237">
        <path
           style="fill:none;stroke:#000000;stroke-width:3.36222;stroke-miterlimit:4;stroke-dasharray:none;stroke-opacity:1"
           d="m 318.89764,322.44093 v 14.17322 l 14.17322,14.17323 56.69292,-10e-6 v -42.51968 l -56.69292,10e-6 z"
           id="path6239"
           sodipodi:nodetypes="ccccccc" />
        <circle
           style="color:#000000;display:inline;overflow:visible;visibility:visible;fill:none;stroke:#000000;stroke-width:4.94765;stroke-linecap:round;stroke-linejoin:round;stroke-miterlimit:4;stroke-dasharray:none;stroke-dashoffset:0;stroke-opacity:1;marker:none;enable-background:accumulate"
           id="path6241"
           transform="matrix(0.6795584,0,0,0.6795584,106.72976,315.08023)"
           cx="325.98425"
           cy="21.259836"
           r="7.0866141" />
      </g>
      <g
         transform="translate(0,1.9199758)"
         id="g6243">
        <text
           xml:space="preserve"
           style="font-style:normal;font-weight:normal;line-height:0%;font-family:'Bitstream Vera Sans';fill:#000000;fill-opacity:1;stroke:none"
           x="354.32672"
           y="341.29044"
           id="text6245"><tspan
             sodipodi:role="line"
             id="tspan6247"
             x="354.32672"
             y="341.29044"
             style="font-size:40px;line-height:1.25">.n</tspan></text>
        <text
           xml:space="preserve"
           style="font-style:normal;font-weight:normal;line-height:0%;font-family:'Bitstream Vera Sans';fill:#000000;fill-opacity:1;stroke:none"
           x="378.62366"
           y="342.59042"
           id="text6251"><tspan
             sodipodi:role="line"
             id="tspan6253"
             x="378.62366"
             y="342.59042"
             style="font-size:14px;line-height:1.25"> </tspan></text>
      </g>
    </g>
  </g>
</svg>
